<?xml version="1.0" encoding="UTF-8"?>
<svg id="Layer_2" data-name="Layer 2" xmlns="http://www.w3.org/2000/svg" viewBox="0 0 161.6 226.79">
  <defs>
    <style>
      .cls-1 {
        stroke-linecap: round;
      }

      .cls-1, .cls-2 {
        fill: none;
        stroke: #fff;
        stroke-miterlimit: 10;
        stroke-width: 1.05px;
      }

      .cls-3, .cls-4 {
        fill: #fff;
      }

      .cls-5, .cls-6 {
        fill: #231f20;
      }

      .cls-4 {
        font-family: BanglaMN, 'Bangla MN';
        font-size: 12.65px;
      }

      .cls-6 {
        font-family: Phosphate-Inline, Phosphate;
        font-size: 40px;
      }
    </style>
  </defs>
  <g>
    <path class="cls-2" d="m4.17,41.42l-3.98-1.57"/>
    <rect class="cls-5" x="13.06" y="13.95" width="118.46" height="164.17" rx="52.83" ry="52.83"/>
    <rect class="cls-5" x="25.63" y="146.31" width="30.61" height="39.35" rx="15.3" ry="15.3"/>
    <rect class="cls-5" x="84.28" y="146.31" width="30.61" height="39.35" rx="15.3" ry="15.3"/>
    <path class="cls-5" d="m62.87,26.87c.44-.14.97-.42.9-.87-.04-.24-.24-.42-.44-.57-8.81-7.02-13.13-19.02-22.99-24.48-1.43-.79-3.26-1.41-4.63-.51-1.72,1.13-1.44,3.67-1.23,5.73.63,6.3-6.75,24.48.17,27.68,3.5,1.62,9-.96,12.29-1.99,5.31-1.66,10.61-3.32,15.92-4.98Z"/>
    <path class="cls-5" d="m81.48,26.87c-.44-.14-.97-.42-.9-.87.04-.24.24-.42.44-.57,8.81-7.02,13.13-19.02,22.99-24.48,1.43-.79,3.26-1.41,4.63-.51,1.72,1.13,1.44,3.67,1.23,5.73-.63,6.3,6.75,24.48-.17,27.68-3.5,1.62-9-.96-12.29-1.99-5.31-1.66-10.61-3.32-15.92-4.98Z"/>
    <path class="cls-5" d="m109.98,146.51c9.36,1.63,19.12,2.3,28.27-.28,9.15-2.57,17.65-8.84,20.96-17.74,1.45-3.9,1.86-8.1,2.12-12.26.38-6.18.43-12.4-.23-18.56-.72-6.66-3.11-14.25-9.4-16.57-2.38-.88-5.03-.83-7.49-.23-4.62,1.13-9.15,5.44-7.93,10.04.34,1.3,1.11,2.45,1.52,3.73.48,1.5.47,3.1.44,4.67-.07,4.61-.13,9.22-.2,13.82-.06,3.96-.19,8.19-2.44,11.45-2.48,3.6-7.02,5.2-11.37,5.66-3.28.34-10.69-1.21-12.57,1.5-.7,1-1.39,14.81-1.68,14.76Z"/>
    <ellipse class="cls-3" cx="72.29" cy="80.44" rx="7.15" ry="3.78"/>
    <ellipse class="cls-3" cx="94.32" cy="61.94" rx="4.77" ry="6.96"/>
    <line class="cls-1" x1="72.29" y1="84.22" x2="72.29" y2="91.85"/>
    <g>
      <line class="cls-1" x1="89.29" y1="81.05" x2="112.78" y2="73.5"/>
      <line class="cls-1" x1="89.91" y1="81.04" x2="114.59" y2="81.04"/>
    </g>
    <ellipse class="cls-3" cx="50.08" cy="62.82" rx="4.77" ry="6.96"/>
    <g>
      <line class="cls-1" x1="55.1" y1="81.93" x2="31.61" y2="74.38"/>
      <line class="cls-1" x1="54.49" y1="81.92" x2="29.81" y2="81.92"/>
    </g>
    <text class="cls-4" transform="translate(54.85 121.1)"><tspan x="0" y="0">Gato</tspan></text>
    <path class="cls-3" d="m51.16,102.14c-.01-.42-.02-.85.13-1.25.33-.87,1.3-1.31,2.21-1.59,2.73-.84,5.62-1.06,8.47-1.21,5.38-.29,10.76-.38,16.15-.27,3.52.07,7.09.24,10.42,1.39,1.01.35,2.08.86,2.53,1.82.28.59.29,1.28.27,1.93-.04,1.46-.18,2.92-.41,4.37,2.27-.13,4.56.05,6.79.53.97.21,1.96.51,2.67,1.19,1.44,1.4,1.02,1.4,1.28,3.05.29,1.84.73,3.65,1.1,5.48.41,2.03.82,4.08.69,6.14-.18,2.92-1.49,5.77-3.68,7.75s-5.24,3.03-8.19,2.72c.18,1.79.35,3.59.53,5.38.03.34.06.7-.09,1.02-.14.3-.43.5-.71.68-6.03,3.88-13.63,4.3-20.83,4.28-5.95-.02-12.15-.34-17.34-3.2-.65-.36-1.3-.77-1.67-1.4-.32-.54-.4-1.17-.46-1.79-.46-4.79.27-9.57.65-14.33s-.14-9.23-.26-13.88l-.22-8.81Z"/>
    <ellipse class="cls-5" cx="70" cy="102.93" rx="13.96" ry="1.88"/>
    <path class="cls-5" d="m97.59,114.26c.53,1.22.59,2.58.63,3.91.05,1.5.11,3,.16,4.5.03.79.06,1.59-.07,2.37-.48,2.91-3.39,5.21-6.34,5-.19-5.1-.48-10.2-.58-15.3-.09-4.68,4.47-3.94,6.2-.49Z"/>
    <ellipse class="cls-5" cx="47.67" cy="111.46" rx="6.86" ry="4.64"/>
    <ellipse class="cls-5" cx="104.17" cy="111.46" rx="6.86" ry="4.64"/>
  </g>
  <text class="cls-6" transform="translate(19.83 215.83)"><tspan x="0" y="0">Gato </tspan></text>
</svg>